HIERARCHY
ROOT Hips
{
	OFFSET	0.00	0.00	0.00
	CHANNELS 6 Xposition Yposition Zposition Zrotation Xrotation Yrotation
	JOINT Spine
	{
		OFFSET	 0.00	0.01	 0.00
		CHANNELS 3 Zrotation Xrotation Yrotation
		JOINT Spine1
		{
			OFFSET	 0.00	 2.45913012437421	 0.00
			CHANNELS 3 Zrotation Xrotation Yrotation
            JOINT Neck
            {
                OFFSET	 0.00	 2.48462964506057	 0.00
                CHANNELS 3 Zrotation Xrotation Yrotation
                JOINT Head
                {
                    OFFSET	 0.00	 0.927524780924562	 0.00
                    CHANNELS 3 Zrotation Xrotation Yrotation
                    End Site 
                    {
                        OFFSET	 0.00	 1.14999962169752	 0.00
                    }
                }
            }
			JOINT LeftShoulder
			{
				OFFSET	 0.00	 2.48462964506057	 0.00
				CHANNELS 3 Zrotation Xrotation Yrotation
				JOINT LeftUpArm
				{
					OFFSET	 0.00	 1.24881979654096	 0.00
					CHANNELS 3 Zrotation Xrotation Yrotation
					JOINT LeftForeArm
					{
						OFFSET	 0.00	2.59758046908119	 0.00
						CHANNELS 3 Zrotation Xrotation Yrotation
						JOINT LeftHand
						{
							OFFSET	 0.00	2.45542024364365	 0.00
							CHANNELS 3 Zrotation Xrotation Yrotation
							JOINT LeftHandThumb 
							{
								OFFSET	 0.00	0.00	 0.00
								CHANNELS 3 Zrotation Xrotation Yrotation
								End Site
								{
									OFFSET	 0.00	0.00	1.00000003353624
								}
							}
							JOINT L_Wrist_End 
							{
								OFFSET	 0.00	0.99999967115358	 0.00
								CHANNELS 3 Zrotation Xrotation Yrotation
								End Site 
								{
									OFFSET	 0.00	 0.00	 0.00
								}
							}
						}
					}
				}
			}
			JOINT RightShoulder
			{
				OFFSET	 0.00	 2.48462964506057	 0.00
				CHANNELS 3 Zrotation Xrotation Yrotation
				JOINT RightUpArm
				{
					OFFSET	 0.00	 1.24881979654096	 0.00
					CHANNELS 3 Zrotation Xrotation Yrotation
					JOINT RightForeArm
					{
						OFFSET	 0.00	2.59758046908119	 0.00
						CHANNELS 3 Zrotation Xrotation Yrotation
						JOINT RightHand
						{
							OFFSET	 0.00	2.45542024364365	 0.00
							CHANNELS 3 Zrotation Xrotation Yrotation
							JOINT RightHandThumb 
							{
								OFFSET	 0.00	0.00	 0.00
								CHANNELS 3 Zrotation Xrotation Yrotation
								End Site
								{
									OFFSET	 0.00	0.00	1.00000003353624
								}
							}
							JOINT R_Wrist_End 
							{
								OFFSET	 0.00	0.99999967115358	 0.00
								CHANNELS 3 Zrotation Xrotation Yrotation
								End Site 
								{
									OFFSET	 0.00	 0.00	 0.00
								}
							}
						}
					}
				}
			}
		}
	}
	JOINT LeftUpLeg
	{
		OFFSET	 1.2719394002717	 0.00	 0.00
		CHANNELS 3 Zrotation Xrotation Yrotation
		JOINT LeftLowLeg
		{
			OFFSET	 0.00	-4.3429100912261	 0.00
			CHANNELS 3 Zrotation Xrotation Yrotation
			JOINT LeftFoot
			{
				OFFSET	 0.00	-4.48767017425826	 0.00
				CHANNELS 3 Zrotation Xrotation Yrotation
				JOINT LeftToeBase
                {
                    OFFSET	 0.00	0.00	 1.51507020887566
                    CHANNELS 3 Zrotation Xrotation Yrotation
                    End Site 
                    {
                        OFFSET	 0.00	0.00	 0.75000010571191
                    }
                }
			}
		}
	}
	JOINT RightUpLeg
	{
		OFFSET	 -1.2719393604653	 0.00	 0.00
		CHANNELS 3 Zrotation Xrotation Yrotation
		JOINT RightLowLeg
		{
			OFFSET	 0.00	-4.3429100912261	 0.00
			CHANNELS 3 Zrotation Xrotation Yrotation
			JOINT RightFoot
			{
				OFFSET	 0.00	-4.48767017425826	 0.00
				CHANNELS 3 Zrotation Xrotation Yrotation
				JOINT RightToeBase
                {
                    OFFSET	 0.00	0.00	 1.51507020887566
                    CHANNELS 3 Zrotation Xrotation Yrotation
                    End Site 
                    {
                        OFFSET	 0.00	0.00	 0.749999965609858
                    }
                }   
			}
		}
	}
}
MOTION 
Frames:	10 
Frame Time: 0.02 
 -5.474840087890625 1.590399932861328 9.378599853515626 -114.725 80.9288 -215.133 6.45828 -19.9738 1.50574 -0.510725 8.18715 -1.42645 4.08308 33.2446 4.90303 -41.1186 -70.1596 337.002 -111.7664 6.10455 6.73881 -19.248 54.74 -357.211 0.0 58.981 0.0 35.311 0.630064 415.487 0.0 0.0 0.0 0.0 0.0 0.0 112.4451 2.87559 -1.93644 24.8967 50.6465 -2.82815 0.0 47.9493 0.0 -32.8842 17.169 -25.413 0.0 0.0 0.0 0.0 0.0 0.0 0.0928509 -21.4577 -26.0409 0.0 29.836 0.0 -7.44428 -5.7276993 17.6738 0.0 -11.72585 0.0 11.0667 -8.57819 25.7394 0.0 13.7112 0.0 7.63471 0.60879993 -21.9204 0.0 -18.216629 0.0 
  -5.505830078125 1.57843994140625 9.380659790039063 -113.115 81.1237 -216.325 6.47105 -19.949 1.32885 -0.434272 8.1194 -1.59408 3.62145 33.6491 5.55831 -40.0567 -69.9404 338.136 -111.6206 5.96295 6.78693 -18.7195 55.065 -358.265 0.0 60.0046 0.0 35.5967 1.77548 416.824 0.0 0.0 0.0 0.0 0.0 0.0 112.5501 2.88749 -2.05467 23.964 51.1082 -2.35209 0.0 49.3589 0.0 -33.8371 18.3615 -26.1613 0.0 0.0 0.0 0.0 0.0 0.0 -0.162526 -21.5299 -26.5004 0.0 30.9227 0.0 -7.72423 -6.0681 16.4938 0.0 -11.94003 0.0 11.0409 -7.77864 25.7099 0.0 12.5851 0.0 7.91539 0.79349995 -22.1397 0.0 -18.04586 0.0 
  -5.5290899658203125 1.5652900695800782 9.384550170898438 -112.86 81.2465 -216.278 6.52617 -20.2214 1.28793 -0.58144 8.2789 -1.62866 3.23497 34.0365 6.21018 -38.8499 -69.8056 339.149 -111.490295 5.75075 6.71001 -18.3338 55.2718 -359.143 0.0 61.1658 0.0 35.8556 2.47939 417.121 0.0 0.0 0.0 0.0 0.0 0.0 112.6458 2.68939 -1.96559 23.6794 51.3628 -1.92689 0.0 50.5551 0.0 -35.8574 20.4563 -25.9118 0.0 0.0 0.0 0.0 0.0 0.0 -0.569955 -21.5773 -26.6895 0.0 31.8732 0.0 -7.52384 -6.2749004 15.8395 0.0 -12.08206 0.0 10.8561 -7.18237 25.6585 0.0 11.5666 0.0 8.34227 0.8779001 -22.089 0.0 -17.93277 0.0 
  -5.548170166015625 1.550260009765625 9.39010009765625 -112.821 81.3986 -216.179 6.53573 -20.5282 1.39416 -0.621322 8.51359 -1.51125 2.96834 34.5447 6.63112 -38.2674 -69.7296 339.636 -111.4569 5.64154 6.59068 -18.1571 55.2163 -359.917 0.0 62.4453 0.0 36.4972 2.86978 416.87 0.0 0.0 0.0 0.0 0.0 0.0 112.6316 2.41073 -1.8361 23.2206 51.2599 -1.40389 0.0 52.0304 0.0 -37.7067 21.9644 -25.0122 0.0 0.0 0.0 0.0 0.0 0.0 -0.964773 -21.4065 -26.5116 0.0 32.6593 0.0 -7.17512 -6.5107994 15.9708 0.0 -12.28851 0.0 10.6714 -6.57058 26.0532 0.0 10.6024 0.0 8.7497 0.9663 -22.3514 0.0 -17.91869 0.0 
  -5.562860107421875 1.533939971923828 9.395130004882812 -113.204 81.5211 -215.882 6.58435 -20.8701 1.66969 -0.658669 8.73237 -1.25798 2.89939 35.0923 6.78991 -37.8442 -69.6411 340.04 -111.416 5.61353 6.52524 -18.1992 54.8615 -360.835 0.0 63.9286 0.0 36.784 2.80351 415.891 0.0 0.0 0.0 0.0 0.0 0.0 112.552704 2.05787 -1.57968 22.9201 50.8417 -1.02251 0.0 53.6376 0.0 -39.2088 22.7365 -24.7735 0.0 0.0 0.0 0.0 0.0 0.0 -1.2728 -21.0537 -25.9511 0.0 33.1724 0.0 -6.5684 -6.9862995 16.5529 0.0 -12.05423 0.0 10.5071 -6.03964 26.9109 0.0 9.76431 0.0 9.08937 1.0347004 -22.8769 0.0 -17.90675 0.0 
  -5.573820190429688 1.5165299987792968 9.397839965820312 -114.397 81.5678 -214.902 6.54777 -21.1773 1.99864 -0.565928 8.66615 -0.926703 2.90124 35.8095 6.82095 -37.6967 -69.565 340.219 -111.3969 5.52205 6.34451 -18.6719 54.3005 -361.279 0.0 65.3793 0.0 37.0377 2.48854 414.894 0.0 0.0 0.0 0.0 0.0 0.0 112.3439 1.56248 -1.25691 22.9053 50.2741 -0.800757 0.0 55.1243 0.0 -39.7285 23.6254 -25.2305 0.0 0.0 0.0 0.0 0.0 0.0 -1.52472 -20.6304 -25.0259 0.0 33.3941 0.0 -5.73053 -7.3876 17.2998 0.0 -12.192141 0.0 10.3005 -5.68733 27.3929 0.0 9.05102 0.0 9.20319 1.1077995 -23.0472 0.0 -17.97157 0.0 
  -5.582009887695312 1.499080047607422 9.399559936523438 -115.853 81.5518 -213.717 6.71233 -21.6746 2.24581 -0.813852 8.80694 -0.737418 2.80379 36.5736 7.13836 -37.27 -69.6411 340.545 -111.234604 5.2458 5.94574 -19.0264 53.4586 -361.787 0.0 66.7907 0.0 37.025 1.99583 414.559 0.0 0.0 0.0 0.0 0.0 0.0 112.2883 1.44367 -0.815714 23.0546 49.5635 -0.972538 0.0 56.4264 0.0 -40.1991 24.0921 -25.4056 0.0 0.0 0.0 0.0 0.0 0.0 -1.6844 -20.1402 -23.8708 0.0 33.3501 0.0 -5.25321 -7.8269997 17.6085 0.0 -12.048019 0.0 10.092 -5.44845 27.5902 0.0 8.4188 0.0 9.25696 1.2151003 -22.9354 0.0 -17.93176 0.0 
  -5.5869598388671875 1.4812899780273439 9.399580078125 -117.276 81.4335 -212.47 6.98105 -22.3075 2.36523 -1.25259 9.03064 -0.693234 2.85312 37.2941 7.38755 -36.6229 -69.7655 341.175 -111.0073 4.87637 5.44136 -19.2541 52.4228 -362.363 0.0 68.1997 0.0 36.2676 1.09745 413.752 0.0 0.0 0.0 0.0 0.0 0.0 112.3064 1.40278 -0.369714 23.2731 48.9943 -1.38445 0.0 57.2752 0.0 -41.1152 24.038 -24.988 0.0 0.0 0.0 0.0 0.0 0.0 -1.76277 -19.5787 -22.7876 0.0 32.9336 0.0 -4.92197 -8.138399 17.5248 0.0 -12.11205 0.0 9.92606 -5.26659 27.78 0.0 7.77573 0.0 9.394 1.2897997 -22.9189 0.0 -17.92436 0.0 
  -5.588060302734375 1.4626400756835938 9.397650146484375 -118.262 81.2256 -211.514 6.85072 -22.5696 2.49274 -0.901918 8.41518 -0.515812 3.04656 38.4592 7.17544 -37.0255 -69.8637 340.615 -111.2501 4.93974 5.52744 -19.3834 51.2176 -362.953 0.0 69.4885 0.0 35.628 0.626356 413.427 0.0 0.0 0.0 0.0 0.0 0.0 112.0365 0.687808 -0.191806 23.3871 48.3964 -1.58693 0.0 58.062 0.0 -41.6453 23.5284 -24.1814 0.0 0.0 0.0 0.0 0.0 0.0 -1.76816 -18.8907 -22.0487 0.0 32.1221 0.0 -4.74956 -8.3659 17.2968 0.0 -12.182529 0.0 9.78743 -5.01228 28.0624 0.0 6.89379 0.0 9.15302 1.5691996 -23.277 0.0 -17.8751 0.0 
  -5.585789794921875 1.4411000061035155 9.394290161132812 -118.378 80.9792 -211.295 7.05681 -23.0692 2.46787 -1.07501 8.33543 -0.600107 3.49993 39.2195 6.8602 -36.8474 -70.0644 340.648 -111.2016 4.63542 5.38313 -19.2975 50.148 -363.726 0.0 70.6608 0.0 35.2723 0.449446 413.083 0.0 0.0 0.0 0.0 0.0 0.0 112.0204 0.293548 -0.011387 23.5225 47.813 -1.74597 0.0 59.2665 0.0 -41.8148 21.6505 -23.3075 0.0 0.0 0.0 0.0 0.0 0.0 -1.65017 -17.941 -21.7589 0.0 30.7416 0.0 -4.76527 -8.4104 17.081 0.0 -12.19831 0.0 9.71555 -4.60177 28.5042 0.0 5.8143 0.0 9.01886 1.8547001 -23.866 0.0 -17.79874 0.0 
